<?xml version="1.0" encoding="UTF-8" standalone="no"?>
<svg
   xmlns:dc="http://purl.org/dc/elements/1.1/"
   xmlns:cc="http://creativecommons.org/ns#"
   xmlns:rdf="http://www.w3.org/1999/02/22-rdf-syntax-ns#"
   xmlns:svg="http://www.w3.org/2000/svg"
   xmlns="http://www.w3.org/2000/svg"
   xmlns:xlink="http://www.w3.org/1999/xlink"
   xmlns:sodipodi="http://sodipodi.sourceforge.net/DTD/sodipodi-0.dtd"
   xmlns:inkscape="http://www.inkscape.org/namespaces/inkscape"
   viewBox="0 0 128 128"
   style="display:inline;enable-background:new"
   version="1.0"
   id="svg11300"
   height="128"
   width="128"
   sodipodi:docname="com.github.dejvino.birdie.svg"
   inkscape:version="1.0.2 (e86c870879, 2021-01-15, custom)">
  <sodipodi:namedview
     pagecolor="#ffffff"
     bordercolor="#666666"
     borderopacity="1"
     objecttolerance="10"
     gridtolerance="10"
     guidetolerance="10"
     inkscape:pageopacity="0"
     inkscape:pageshadow="2"
     inkscape:window-width="1276"
     inkscape:window-height="1020"
     id="namedview24"
     showgrid="false"
     inkscape:zoom="0.70710678"
     inkscape:cx="32.304877"
     inkscape:cy="-79.07892"
     inkscape:window-x="0"
     inkscape:window-y="0"
     inkscape:window-maximized="1"
     inkscape:current-layer="g6"
     inkscape:document-rotation="0" />
  <title
     id="title4162">Adwaita Icon Template</title>
  <defs
     id="defs3">
    <linearGradient
       id="linearGradient950">
      <stop
         style="stop-color:#9a9996;stop-opacity:1"
         offset="0"
         id="stop946" />
      <stop
         style="stop-color:#77767b;stop-opacity:1"
         offset="1"
         id="stop948" />
    </linearGradient>
    <linearGradient
       y2="812.88245"
       x2="1662.9901"
       y1="806.29718"
       x1="1660.8571"
       gradientTransform="matrix(1.8293937,-0.81599442,0.81599442,1.8293937,-3645.9624,100.02949)"
       gradientUnits="userSpaceOnUse"
       id="linearGradient1001"
       xlink:href="#linearGradient950" />
  </defs>
  <metadata
     id="metadata4">
    <rdf:RDF>
      <cc:Work
         rdf:about="">
        <dc:format>image/svg+xml</dc:format>
        <dc:type
           rdf:resource="http://purl.org/dc/dcmitype/StillImage" />
        <dc:creator>
          <cc:Agent>
            <dc:title>GNOME Design Team</dc:title>
          </cc:Agent>
        </dc:creator>
        <dc:source />
        <cc:license
           rdf:resource="http://creativecommons.org/licenses/by-sa/4.0/" />
        <dc:title>Adwaita Icon Template</dc:title>
        <dc:subject>
          <rdf:Bag />
        </dc:subject>
        <dc:date />
        <dc:rights>
          <cc:Agent>
            <dc:title />
          </cc:Agent>
        </dc:rights>
        <dc:publisher>
          <cc:Agent>
            <dc:title />
          </cc:Agent>
        </dc:publisher>
        <dc:identifier />
        <dc:relation />
        <dc:language />
        <dc:coverage />
        <dc:description />
        <dc:contributor>
          <cc:Agent>
            <dc:title />
          </cc:Agent>
        </dc:contributor>
      </cc:Work>
      <cc:License
         rdf:about="http://creativecommons.org/licenses/by-sa/4.0/">
        <cc:permits
           rdf:resource="http://creativecommons.org/ns#Reproduction" />
        <cc:permits
           rdf:resource="http://creativecommons.org/ns#Distribution" />
        <cc:requires
           rdf:resource="http://creativecommons.org/ns#Notice" />
        <cc:requires
           rdf:resource="http://creativecommons.org/ns#Attribution" />
        <cc:permits
           rdf:resource="http://creativecommons.org/ns#DerivativeWorks" />
        <cc:requires
           rdf:resource="http://creativecommons.org/ns#ShareAlike" />
      </cc:License>
    </rdf:RDF>
  </metadata>
  <g
     id="layer1"
     transform="matrix(0.07568926,0.03423655,-0.03423655,0.07568926,82.229364,19.059693)">
    <g
       id="g26164">
      <ellipse
         style="fill:#412209;fill-opacity:0.622752;fill-rule:evenodd;stroke-width:9.87303"
         id="path98"
         cx="-32.722385"
         cy="1141.8457"
         transform="rotate(-24.338683)"
         rx="457.86792"
         ry="86.644463" />
      <path
         id="path12584"
         d="m 195.57314,372.36027 c -62.08,1.23 -122.890003,20.46 -177.240003,49.8 -74.559998,41.93 -134.709997,112.78 -155.309997,196.68 -11.78,46.992 -9.6809,99.038 13.629,142.23 26.442999,53.696 70.958999,98.422 125.279997,123.83 66.319,31.957 141.290003,39.681 214.040003,39.058 49.226,-0.40198 98.177,-8.2902 145.42,-21.95 82.334,-23.268 160.88,-58.049 237.68,-95.394 83.742,-41.274 164.7,-87.972 243.91,-137.32 -73.36,-21.07 -136.82,-65.28 -201.32,-104.61 -100.02,-63.02 -199.85,-129.46 -312.33,-168.42 -43.035,-14.553 -88.169,-24.21 -133.77,-23.913 z"
         fill="#d49b27" />
      <path
         id="path24648"
         d="m -160.81686,608.99027 c -62.438,7.3184 -124.89,14.544 -187.33,21.818 -0.54405,0.72057 -8.2312,1.1743 -3.416,2.1204 60.301,14.135 121.41,25.633 182.01,38.769 0.44135,-21.172 3.7125,-42.161 8.7387,-62.705 z"
         fill="#ffb62a" />
      <path
         id="path24646"
         d="m -169.82686,676.09027 c -57.086,18.121 -114.19,36.246 -171.28,54.37 -2.3942,1.3805 -6.3777,3.0424 -1.1246,3.1001 59.564,-1.1712 119.25,-4.0395 178.86,-5.8717 -4.043,-16.91 -6.2403,-34.216 -6.4663,-51.604 z"
         fill="#ffb62a" />
      <path
         id="path12504"
         d="m 362.43549,903.1746 c -6.05855,10.26391 -12.22143,20.25938 -18.45365,30.02821 l 26.25579,16.08548 -44.69722,68.84931 -0.0335,0.054 c -3.69672,1.8196 -7.44417,3.7372 -11.14584,5.5907 -16.37668,-0.9191 -32.69937,6.4958 -42.27508,21.2368 -14.32596,22.1001 -8.08217,51.8763 13.97294,66.512 9.54825,6.283 20.43911,8.5198 30.91228,7.4926 11.848,-1.159 23.0253,-6.701 31.14623,-16.2281 1.30832,-1.5776 2.72363,-3.0644 3.85827,-4.8501 10.94009,-16.8479 9.83194,-38.1317 -1.07408,-53.7913 -0.002,-0 -0.004,-0.01 -0.007,-0.01 l 36.62012,-56.43072 32.12132,-49.51207 -57.20179,-35.02688 z m -44.55999,120.8803 c 1.1689,0.1221 2.33428,0.2902 3.48813,0.5347 -1.15394,-0.2401 -2.32004,-0.4107 -3.48813,-0.5347 z m 18.15316,6.1721 c 0.67078,0.398 1.336,0.8147 1.99428,1.253 1.10984,0.7344 2.1685,1.5182 3.19422,2.3323 -1.03189,-0.8163 -2.0989,-1.6026 -3.21791,-2.3395 -0.6502,-0.4352 -1.30686,-0.8503 -1.97051,-1.2457 z"
         fill="#ffaaaa"
         inkscape:transform-center-x="0.5484694"
         inkscape:transform-center-y="-0.0092751827"
         style="fill:#ffb697;fill-opacity:1;stroke-width:1.11358" />
      <path
         id="path12588"
         d="m 242.07314,918.83027 c 192.33,-8.58 490.77,-185.63 590.54,-248.15 -59.22,-17.41 -131.08,-62.95 -211.72,-114.08 -150.98,-95.73 -322.11,-204.23 -475.28,-175.13 -156.560003,29.71 -226.540001,122.53 -254.31,175.2 -33.651,63.825 -40.465,135.67 -17.779,187.46 55.313999,126.45 175.149997,183.31 368.55,174.69 m -272.360003,-20.781 c -32.270998,-18.728 -60.265998,-41.868 -83.164997,-70.68 -16.542,-20.814 -30.722,-44.52 -42.09,-70.501 -4.2791,-9.7695 -7.3773,-20.195 -9.9549,-30.832 -3.6774,-15.233 -5.7666,-31.12 -6.0067,-47.587 -0.0249,-2.9378 0.20778,-5.9596 0.29607,-8.9081 0.45282,-19.164 3.1664,-38.748 8.135,-58.502 5.8369,-23.2 14.375,-46.521 26.309,-69.136 30.425,-57.737 106.829997,-159.4 276.46,-191.6 165.52,-31.449 349.98,85.499 498.2,179.49 92.87,58.875 180.6,114.5 237.87,116.64 6.8821,0.24556 12.822,4.9663 14.669,11.523 1.8617,6.6258 -0.73264,13.713 -6.4723,17.506 -13.176,8.8151 -269.86,178.69 -495.03,247.17 -10.266,3.0943 -20.414,5.9301 -30.52,8.6131 -40.308,10.678 -79.202,17.679 -114.93,19.283 -13.751,0.59572 -26.644,0.38598 -39.715,0.35845 -95.877,-0.1924 -173.430003,-17.709 -234.060003,-52.846"
         fill="#aa4400" />
      <path
         id="path12592"
         d="m 399.27314,711.08027 c -10.258,8.1528 -11.961,23.042 -3.8084,33.299 8.1532,10.259 23.042,11.961 33.3,3.8085 10.258,-8.1527 11.961,-23.042 3.8075,-33.3 -8.1523,-10.258 -23.041,-11.96 -33.3,-3.8074 m -64.634,15.867 c 10.233,-8.133 11.961,-23.042 3.8075,-33.3 -8.1523,-10.258 -23.066,-11.94 -33.3,-3.8074 -10.258,8.1527 -11.961,23.042 -3.8084,33.299 8.1532,10.259 23.042,11.961 33.3,3.8085 m 6.4998,-77.183 c 7.0082,8.818 19.866,10.31 28.708,3.2829 8.8423,-7.0276 10.291,-19.89 3.2829,-28.708 -7.0276,-8.8423 -19.866,-10.31 -28.708,-3.2829 -8.8423,7.0276 -10.31,19.866 -3.2829,28.708 m -87.309,41.184 c 13.065,-10.383 15.242,-29.418 4.8585,-42.483 -10.383,-13.065 -29.419,-15.242 -42.484,-4.8586 -13.09,10.403 -15.266,29.439 -4.8825,42.503 10.383,13.065 29.418,15.241 42.507,4.8378 m 203.48,-9.2927 c -8.122,6.4551 -9.4733,18.268 -2.9985,26.415 6.4555,8.1226 18.268,9.4729 26.39,3.0178 8.1468,-6.4748 9.4982,-18.288 3.0426,-26.41 -6.4748,-8.1468 -18.288,-9.4972 -26.434,-3.0224 m -204.96,153.07 c -86.261,-28.58 -173.460003,-121.83 -124.52,-203.69 132.84,-222.29 499.97,88.4 499.97,88.4 -94.34,78.75 -289.19,143.92 -375.45,115.29"
         fill="#aa4400" />
      <path
         id="path12596"
         d="m 24.044137,639.10027 c -13.542,-17.039 -38.347,-19.897 -55.41,-6.3358 -17.039,13.542 -19.853998,38.352 -6.312,55.39 13.542,17.039 38.34800002,19.899 55.386,6.3567 17.064,-13.562 19.878,-38.372 6.3359,-55.411" />
      <g
         transform="matrix(0.53116527,-0.12028811,0.12028811,0.53116527,-1063.1968,-59.940729)"
         id="g6"
         style="clip-rule:evenodd;fill-rule:evenodd;stroke-linejoin:round;stroke-miterlimit:1.41421">
        <g
           id="g4"
           style="fill:#fade3e;fill-opacity:1;stroke:#ab8e2d;stroke-width:44.2063;stroke-miterlimit:1.41421;stroke-dasharray:none;stroke-opacity:1"
           transform="matrix(1.2331795,0,0,1.2331795,-152.78241,-174.30884)">
          <path
             d="m 694.968,519.887 c -0.045,-0.69 -0.068,-1.387 -0.068,-2.089 0,-17.442 14.161,-31.604 31.604,-31.604 17.442,0 31.603,14.162 31.603,31.604 0,0.702 -0.023,1.399 -0.068,2.089 128.074,17.089 227.426,136.915 227.427,281.996 0,163.026 39.924,308.067 101.774,400.127 H 778.619 c 0,28.77 -23.352,52.12 -52.115,52.12 -28.764,0 -52.116,-23.35 -52.116,-52.12 H 365.769 c 61.852,-92.06 101.772,-237.099 101.772,-400.127 0,-145.081 99.352,-264.907 227.427,-281.996 z"
             style="fill:#fade3e;fill-opacity:1;stroke:#ab8e2d;stroke-width:44.2063;stroke-miterlimit:1.41421;stroke-dasharray:none;stroke-opacity:1"
             id="path2" />
        </g>
      </g>
    </g>
  </g>
</svg>
